<svg width="115" height="42" viewBox="0 0 115 42" fill="none" xmlns="http://www.w3.org/2000/svg">
<path d="M46.588 38C46.452 37.64 46.324 37.288 46.204 36.944C46.084 36.592 45.96 36.236 45.832 35.876H42.064L41.308 38H40.096C40.416 37.12 40.716 36.308 40.996 35.564C41.276 34.812 41.548 34.1 41.812 33.428C42.084 32.756 42.352 32.116 42.616 31.508C42.88 30.892 43.156 30.284 43.444 29.684H44.512C44.8 30.284 45.076 30.892 45.34 31.508C45.604 32.116 45.868 32.756 46.132 33.428C46.404 34.1 46.68 34.812 46.96 35.564C47.24 36.308 47.54 37.12 47.86 38H46.588ZM45.496 34.916C45.24 34.22 44.984 33.548 44.728 32.9C44.48 32.244 44.22 31.616 43.948 31.016C43.668 31.616 43.4 32.244 43.144 32.9C42.896 33.548 42.648 34.22 42.4 34.916H45.496ZM67.577 34.52C67.705 34.68 67.865 34.892 68.057 35.156C68.257 35.412 68.461 35.7 68.669 36.02C68.877 36.332 69.081 36.66 69.281 37.004C69.489 37.348 69.665 37.68 69.809 38H68.537C68.377 37.696 68.201 37.388 68.009 37.076C67.825 36.764 67.637 36.468 67.445 36.188C67.253 35.9 67.061 35.632 66.869 35.384C66.685 35.136 66.517 34.92 66.365 34.736C66.261 34.744 66.153 34.748 66.041 34.748C65.937 34.748 65.829 34.748 65.717 34.748H64.673V38H63.509V29.804C63.837 29.724 64.201 29.672 64.601 29.648C65.009 29.616 65.381 29.6 65.717 29.6C66.885 29.6 67.773 29.82 68.381 30.26C68.997 30.7 69.305 31.356 69.305 32.228C69.305 32.78 69.157 33.252 68.861 33.644C68.573 34.036 68.145 34.328 67.577 34.52ZM65.813 30.62C65.317 30.62 64.937 30.632 64.673 30.656V33.788H65.501C65.901 33.788 66.261 33.768 66.581 33.728C66.901 33.688 67.169 33.612 67.385 33.5C67.609 33.388 67.781 33.232 67.901 33.032C68.021 32.824 68.081 32.552 68.081 32.216C68.081 31.904 68.021 31.644 67.901 31.436C67.781 31.228 67.617 31.064 67.409 30.944C67.209 30.824 66.969 30.74 66.689 30.692C66.417 30.644 66.125 30.62 65.813 30.62ZM91.1319 29.684V30.692H88.5159V38H87.3519V30.692H84.7359V29.684H91.1319ZM106.881 38V29.684H111.957V30.68H108.045V33.152H111.525V34.124H108.045V37.004H112.257V38H106.881Z" fill="white"/>
<path d="M44.38 18.62C44.82 18.62 45.18 18.5867 45.46 18.52C45.7533 18.44 45.9867 18.34 46.16 18.22C46.3333 18.0867 46.4533 17.9333 46.52 17.76C46.5867 17.5867 46.62 17.3933 46.62 17.18C46.62 16.7267 46.4067 16.3533 45.98 16.06C45.5533 15.7533 44.82 15.4267 43.78 15.08C43.3267 14.92 42.8733 14.74 42.42 14.54C41.9667 14.3267 41.56 14.0667 41.2 13.76C40.84 13.44 40.5467 13.06 40.32 12.62C40.0933 12.1667 39.98 11.62 39.98 10.98C39.98 10.34 40.1 9.76667 40.34 9.26C40.58 8.74 40.92 8.3 41.36 7.94C41.8 7.58 42.3333 7.30667 42.96 7.12C43.5867 6.92 44.2933 6.82 45.08 6.82C46.0133 6.82 46.82 6.92 47.5 7.12C48.18 7.32 48.74 7.54 49.18 7.78L48.28 10.24C47.8933 10.04 47.46 9.86667 46.98 9.72C46.5133 9.56 45.9467 9.48 45.28 9.48C44.5333 9.48 43.9933 9.58667 43.66 9.8C43.34 10 43.18 10.3133 43.18 10.74C43.18 10.9933 43.24 11.2067 43.36 11.38C43.48 11.5533 43.6467 11.7133 43.86 11.86C44.0867 11.9933 44.34 12.12 44.62 12.24C44.9133 12.3467 45.2333 12.46 45.58 12.58C46.3 12.8467 46.9267 13.1133 47.46 13.38C47.9933 13.6333 48.4333 13.9333 48.78 14.28C49.14 14.6267 49.4067 15.0333 49.58 15.5C49.7533 15.9667 49.84 16.5333 49.84 17.2C49.84 18.4933 49.3867 19.5 48.48 20.22C47.5733 20.9267 46.2067 21.28 44.38 21.28C43.7667 21.28 43.2133 21.24 42.72 21.16C42.2267 21.0933 41.7867 21.0067 41.4 20.9C41.0267 20.7933 40.7 20.68 40.42 20.56C40.1533 20.44 39.9267 20.3267 39.74 20.22L40.62 17.74C41.0333 17.9667 41.54 18.1733 42.14 18.36C42.7533 18.5333 43.5 18.62 44.38 18.62ZM62.13 7.14V9.8H57.95V21H54.83V9.8H50.65V7.14H62.13ZM69.5552 21.28C68.5818 21.28 67.7418 21.1467 67.0352 20.88C66.3285 20.6 65.7418 20.22 65.2752 19.74C64.8218 19.2467 64.4818 18.6667 64.2552 18C64.0418 17.32 63.9352 16.5733 63.9352 15.76V7.14H67.0552V15.5C67.0552 16.06 67.1152 16.54 67.2352 16.94C67.3685 17.3267 67.5418 17.6467 67.7552 17.9C67.9818 18.14 68.2485 18.3133 68.5552 18.42C68.8752 18.5267 69.2218 18.58 69.5952 18.58C70.3552 18.58 70.9685 18.3467 71.4352 17.88C71.9152 17.4133 72.1552 16.62 72.1552 15.5V7.14H75.2752V15.76C75.2752 16.5733 75.1618 17.32 74.9352 18C74.7085 18.68 74.3618 19.2667 73.8952 19.76C73.4285 20.24 72.8352 20.6133 72.1152 20.88C71.3952 21.1467 70.5418 21.28 69.5552 21.28ZM81.3958 18.46C81.5424 18.4733 81.7091 18.4867 81.8958 18.5C82.0958 18.5 82.3291 18.5 82.5958 18.5C84.1558 18.5 85.3091 18.1067 86.0558 17.32C86.8158 16.5333 87.1958 15.4467 87.1958 14.06C87.1958 12.6067 86.8358 11.5067 86.1158 10.76C85.3958 10.0133 84.2558 9.64 82.6958 9.64C82.4824 9.64 82.2624 9.64667 82.0358 9.66C81.8091 9.66 81.5958 9.67333 81.3958 9.7V18.46ZM90.4158 14.06C90.4158 15.26 90.2291 16.3067 89.8558 17.2C89.4824 18.0933 88.9491 18.8333 88.2558 19.42C87.5758 20.0067 86.7424 20.4467 85.7558 20.74C84.7691 21.0333 83.6624 21.18 82.4358 21.18C81.8758 21.18 81.2224 21.1533 80.4758 21.1C79.7291 21.06 78.9958 20.9667 78.2758 20.82V7.32C78.9958 7.18667 79.7424 7.1 80.5158 7.06C81.3024 7.00667 81.9758 6.98 82.5358 6.98C83.7224 6.98 84.7958 7.11333 85.7558 7.38C86.7291 7.64667 87.5624 8.06667 88.2558 8.64C88.9491 9.21333 89.4824 9.94667 89.8558 10.84C90.2291 11.7333 90.4158 12.8067 90.4158 14.06ZM93.0219 7.14H96.1419V21H93.0219V7.14ZM101.97 14.06C101.97 14.74 102.05 15.3533 102.21 15.9C102.383 16.4467 102.623 16.92 102.93 17.32C103.25 17.7067 103.637 18.0067 104.09 18.22C104.543 18.4333 105.063 18.54 105.65 18.54C106.223 18.54 106.737 18.4333 107.19 18.22C107.657 18.0067 108.043 17.7067 108.35 17.32C108.67 16.92 108.91 16.4467 109.07 15.9C109.243 15.3533 109.33 14.74 109.33 14.06C109.33 13.38 109.243 12.7667 109.07 12.22C108.91 11.66 108.67 11.1867 108.35 10.8C108.043 10.4 107.657 10.0933 107.19 9.88C106.737 9.66667 106.223 9.56 105.65 9.56C105.063 9.56 104.543 9.67333 104.09 9.9C103.637 10.1133 103.25 10.42 102.93 10.82C102.623 11.2067 102.383 11.68 102.21 12.24C102.05 12.7867 101.97 13.3933 101.97 14.06ZM112.55 14.06C112.55 15.2467 112.37 16.2933 112.01 17.2C111.663 18.0933 111.183 18.8467 110.57 19.46C109.957 20.06 109.223 20.5133 108.37 20.82C107.53 21.1267 106.623 21.28 105.65 21.28C104.703 21.28 103.81 21.1267 102.97 20.82C102.13 20.5133 101.397 20.06 100.77 19.46C100.143 18.8467 99.65 18.0933 99.29 17.2C98.93 16.2933 98.75 15.2467 98.75 14.06C98.75 12.8733 98.9367 11.8333 99.31 10.94C99.6833 10.0333 100.183 9.27333 100.81 8.66C101.45 8.04667 102.183 7.58667 103.01 7.28C103.85 6.97333 104.73 6.82 105.65 6.82C106.597 6.82 107.49 6.97333 108.33 7.28C109.17 7.58667 109.903 8.04667 110.53 8.66C111.157 9.27333 111.65 10.0333 112.01 10.94C112.37 11.8333 112.55 12.8733 112.55 14.06Z" fill="white"/>
<g clip-path="url(#clip0)">
<path d="M12.8267 10L0 22.8267V26.9144L16.9144 10H12.8267Z" fill="white"/>
<path d="M2.88891 10C1.3 10 0 11.3 0 12.8889V15.785L5.785 10H2.88891Z" fill="white"/>
<path d="M9.08594 36.0004H13.1737L26.0004 23.1737V19.0859L9.08594 36.0004Z" fill="white"/>
<path d="M23.8468 10.1084L0.107422 33.8478C0.237422 34.3461 0.490177 34.7939 0.844088 35.1478L0.851333 35.1551C1.20524 35.509 1.653 35.7617 2.15133 35.8917L25.8907 12.1523C25.6235 11.1556 24.8435 10.3756 23.8468 10.1084Z" fill="white"/>
<path d="M23.1109 35.9998C23.9054 35.9998 24.6276 35.6748 25.1476 35.1548C25.6748 34.6276 25.9998 33.9054 25.9998 33.1109V30.2148L20.2148 35.9998H23.1109Z" fill="white"/>
</g>
<defs>
<clipPath id="clip0">
<rect width="26" height="26" fill="white" transform="translate(0 10)"/>
</clipPath>
</defs>
</svg>
