<svg width="72" height="11" viewBox="0 0 72 11" fill="none" xmlns="http://www.w3.org/2000/svg">
<path d="M5.929 5.307C6.56167 5.437 7.04267 5.69267 7.372 6.074C7.70133 6.44667 7.866 6.93633 7.866 7.543C7.866 8.33167 7.58433 8.93833 7.021 9.363C6.46633 9.78767 5.64733 10 4.564 10H0.534V0.899999H4.317C5.28767 0.899999 6.046 1.09933 6.592 1.498C7.138 1.89667 7.411 2.473 7.411 3.227C7.411 3.73833 7.281 4.17167 7.021 4.527C6.761 4.87367 6.397 5.13367 5.929 5.307ZM1.483 5.021H4.265C4.967 5.021 5.50433 4.878 5.877 4.592C6.25833 4.306 6.449 3.89 6.449 3.344C6.449 2.798 6.25833 2.382 5.877 2.096C5.50433 1.81 4.967 1.667 4.265 1.667H1.483V5.021ZM4.564 9.233C6.13267 9.233 6.917 8.648 6.917 7.478C6.917 6.334 6.13267 5.762 4.564 5.762H1.483V9.233H4.564ZM12.4033 3.11C13.296 3.11 13.9806 3.33533 14.4573 3.786C14.934 4.228 15.1723 4.88667 15.1723 5.762V10H14.2883V8.934C14.0803 9.28933 13.7726 9.56667 13.3653 9.766C12.9666 9.96533 12.49 10.065 11.9353 10.065C11.1726 10.065 10.566 9.883 10.1153 9.519C9.66464 9.155 9.4393 8.674 9.4393 8.076C9.4393 7.49533 9.6473 7.02733 10.0633 6.672C10.488 6.31667 11.1596 6.139 12.0783 6.139H14.2493V5.723C14.2493 5.13367 14.0846 4.68733 13.7553 4.384C13.426 4.072 12.945 3.916 12.3123 3.916C11.879 3.916 11.463 3.98967 11.0643 4.137C10.6656 4.27567 10.3233 4.47067 10.0373 4.722L9.6213 4.033C9.96797 3.73833 10.384 3.513 10.8693 3.357C11.3546 3.19233 11.866 3.11 12.4033 3.11ZM12.0783 9.337C12.5983 9.337 13.0446 9.22 13.4173 8.986C13.79 8.74333 14.0673 8.39667 14.2493 7.946V6.828H12.1043C10.9343 6.828 10.3493 7.23533 10.3493 8.05C10.3493 8.44867 10.501 8.765 10.8043 8.999C11.1076 9.22433 11.5323 9.337 12.0783 9.337ZM27.0674 3.162V10H17.6294V3.162H18.5524V9.194H21.9064V3.162H22.8294V9.194H26.1444V3.162H27.0674ZM39.033 6.867H33.313C33.365 7.57767 33.638 8.154 34.132 8.596C34.626 9.02933 35.25 9.246 36.004 9.246C36.4287 9.246 36.8187 9.17233 37.174 9.025C37.5293 8.869 37.837 8.64367 38.097 8.349L38.617 8.947C38.3137 9.311 37.9323 9.58833 37.473 9.779C37.0223 9.96967 36.524 10.065 35.978 10.065C35.276 10.065 34.652 9.91767 34.106 9.623C33.5687 9.31967 33.1483 8.90367 32.845 8.375C32.5417 7.84633 32.39 7.24833 32.39 6.581C32.39 5.91367 32.533 5.31567 32.819 4.787C33.1137 4.25833 33.5123 3.84667 34.015 3.552C34.5263 3.25733 35.0983 3.11 35.731 3.11C36.3637 3.11 36.9313 3.25733 37.434 3.552C37.9367 3.84667 38.331 4.25833 38.617 4.787C38.903 5.307 39.046 5.905 39.046 6.581L39.033 6.867ZM35.731 3.903C35.0723 3.903 34.5177 4.11533 34.067 4.54C33.625 4.956 33.3737 5.502 33.313 6.178H38.162C38.1013 5.502 37.8457 4.956 37.395 4.54C36.953 4.11533 36.3983 3.903 35.731 3.903ZM40.5446 6.074H43.9506V6.88H40.5446V6.074ZM54.5435 3.11C55.4015 3.11 56.0732 3.357 56.5585 3.851C57.0525 4.345 57.2995 5.073 57.2995 6.035V10H56.3765V6.126C56.3765 5.41533 56.2032 4.87367 55.8565 4.501C55.5185 4.12833 55.0375 3.942 54.4135 3.942C53.7028 3.942 53.1438 4.163 52.7365 4.605C52.3292 5.03833 52.1255 5.64067 52.1255 6.412V10H51.2025V6.126C51.2025 5.41533 51.0292 4.87367 50.6825 4.501C50.3445 4.12833 49.8592 3.942 49.2265 3.942C48.5245 3.942 47.9655 4.163 47.5495 4.605C47.1422 5.03833 46.9385 5.64067 46.9385 6.412V10H46.0155V3.162H46.8995V4.41C47.1422 3.994 47.4802 3.67333 47.9135 3.448C48.3468 3.22267 48.8452 3.11 49.4085 3.11C49.9805 3.11 50.4745 3.23133 50.8905 3.474C51.3152 3.71667 51.6315 4.07633 51.8395 4.553C52.0908 4.10233 52.4505 3.75133 52.9185 3.5C53.3952 3.24 53.9368 3.11 54.5435 3.11ZM62.1946 3.11C63.0873 3.11 63.772 3.33533 64.2486 3.786C64.7253 4.228 64.9636 4.88667 64.9636 5.762V10H64.0796V8.934C63.8716 9.28933 63.564 9.56667 63.1566 9.766C62.758 9.96533 62.2813 10.065 61.7266 10.065C60.964 10.065 60.3573 9.883 59.9066 9.519C59.456 9.155 59.2306 8.674 59.2306 8.076C59.2306 7.49533 59.4386 7.02733 59.8546 6.672C60.2793 6.31667 60.951 6.139 61.8696 6.139H64.0406V5.723C64.0406 5.13367 63.876 4.68733 63.5466 4.384C63.2173 4.072 62.7363 3.916 62.1036 3.916C61.6703 3.916 61.2543 3.98967 60.8556 4.137C60.457 4.27567 60.1146 4.47067 59.8286 4.722L59.4126 4.033C59.7593 3.73833 60.1753 3.513 60.6606 3.357C61.146 3.19233 61.6573 3.11 62.1946 3.11ZM61.8696 9.337C62.3896 9.337 62.836 9.22 63.2086 8.986C63.5813 8.74333 63.8586 8.39667 64.0406 7.946V6.828H61.8956C60.7256 6.828 60.1406 7.23533 60.1406 8.05C60.1406 8.44867 60.2923 8.765 60.5956 8.999C60.899 9.22433 61.3236 9.337 61.8696 9.337ZM67.4706 3.162H68.3936V10H67.4706V3.162ZM67.9386 1.667C67.7479 1.667 67.5876 1.602 67.4576 1.472C67.3276 1.342 67.2626 1.186 67.2626 1.004C67.2626 0.830666 67.3276 0.679 67.4576 0.548999C67.5876 0.418999 67.7479 0.353999 67.9386 0.353999C68.1293 0.353999 68.2896 0.418999 68.4196 0.548999C68.5496 0.670333 68.6146 0.817666 68.6146 0.991C68.6146 1.18167 68.5496 1.342 68.4196 1.472C68.2896 1.602 68.1293 1.667 67.9386 1.667ZM70.9618 0.353999H71.8848V10H70.9618V0.353999Z" fill="black"/>
</svg>
